<svg width="41" height="40" viewBox="0 0 41 40" fill="none" xmlns="http://www.w3.org/2000/svg">
<g clip-path="url(#clip0_1_2376)">
<path d="M14.0833 13.79C13.4393 13.79 12.9202 14.313 12.9202 14.9532C12.9202 15.5933 13.4393 16.1202 14.0833 16.1202C14.7273 16.1202 15.2465 15.5972 15.2465 14.9571C15.2465 14.3169 14.7273 13.79 14.0833 13.79ZM23.0685 19.9922C22.5337 19.9922 22.0966 20.4254 22.0966 20.9641C22.0966 21.4988 22.5298 21.936 23.0685 21.936C23.6032 21.936 24.0404 21.4988 24.0404 20.9641C24.0404 20.4294 23.6032 19.9922 23.0685 19.9922ZM20.0669 16.1202C20.711 16.1202 21.2301 15.5972 21.2301 14.9571C21.2301 14.3169 20.7071 13.7939 20.0669 13.7939C19.4229 13.7939 18.9038 14.3169 18.9038 14.9571C18.9038 15.5972 19.4229 16.1202 20.0669 16.1202ZM27.7836 19.9844C27.2488 19.9844 26.8117 20.4176 26.8117 20.9563C26.8117 21.491 27.2449 21.9282 27.7836 21.9282C28.3183 21.9282 28.7555 21.4949 28.7555 20.9563C28.7515 20.4215 28.3183 19.9844 27.7836 19.9844Z" fill="#00C800"/>
<path d="M20.4844 0.0312347C9.45004 0.0312347 0.5 8.97737 0.5 20.0156C0.5 31.0539 9.44614 40 20.4844 40C31.5226 40 40.4688 31.0539 40.4688 20.0156C40.4688 8.97737 31.5226 0.0312347 20.4844 0.0312347ZM16.9598 24.8166C15.8903 24.8166 15.0316 24.598 13.9582 24.3872L10.9645 25.8899L11.8193 23.3138C9.67252 21.815 8.39227 19.8829 8.39227 17.5293C8.39227 13.4543 12.2486 10.242 16.9598 10.242C21.1714 10.242 24.8638 12.8064 25.6054 16.2568C25.3322 16.2256 25.0589 16.2061 24.7818 16.2061C20.7147 16.2061 17.4984 19.2428 17.4984 22.986C17.4984 23.6105 17.596 24.2077 17.7639 24.7814C17.4984 24.8049 17.2291 24.8166 16.9598 24.8166ZM29.5984 27.8181L30.2424 29.9571L27.8927 28.6729C27.0379 28.8876 26.1753 29.1023 25.3205 29.1023C21.2455 29.1023 18.0332 26.3154 18.0332 22.8845C18.0332 19.4614 21.2416 16.6667 25.3205 16.6667C29.169 16.6667 32.596 19.4575 32.596 22.8845C32.5999 24.8166 31.3158 26.5262 29.5984 27.8181Z" fill="#00C800"/>
</g>
<defs>
<clipPath id="clip0_1_2376">
<rect width="40" height="40" fill="white" transform="translate(0.5)"/>
</clipPath>
</defs>
</svg>
