<svg width="41" height="40" viewBox="0 0 41 40" fill="none" xmlns="http://www.w3.org/2000/svg">
<path fill-rule="evenodd" clip-rule="evenodd" d="M20.5 40C31.5457 40 40.5 31.0457 40.5 20C40.5 8.9543 31.5457 0 20.5 0C9.4543 0 0.5 8.9543 0.5 20C0.5 31.0457 9.4543 40 20.5 40ZM23.5948 11.8623C24.7946 10.4377 24.6956 9.13988 24.6591 8.66125L24.6583 8.65053C23.5901 8.71252 22.355 9.37776 21.6516 10.1956C20.8767 11.073 20.4213 12.1579 20.519 13.3811C21.6731 13.4693 22.7269 12.8756 23.5948 11.8623ZM26.1009 19.1346C26.0913 17.5084 26.8281 16.2829 28.3159 15.3792C27.4838 14.187 26.2248 13.5313 24.5653 13.4049C23.5674 13.3262 22.5098 13.7168 21.7096 14.0123C21.2499 14.1821 20.8751 14.3205 20.6454 14.3205C20.3613 14.3205 19.9211 14.1613 19.4166 13.979C18.7399 13.7343 17.9478 13.4479 17.262 13.4479C14.7918 13.486 12.1667 15.4173 12.1667 19.3468C12.1667 20.5079 12.3789 21.7073 12.8033 22.9424C13.3708 24.5685 15.4165 28.5528 17.5505 28.4884C18.0629 28.4763 18.5064 28.3085 18.9768 28.1304C19.5309 27.9207 20.1224 27.6968 20.9077 27.6968C21.6342 27.6968 22.18 27.9072 22.7089 28.111C23.206 28.3026 23.6881 28.4884 24.2911 28.4884C26.4442 28.4574 28.2945 24.8356 28.8333 23.2047C26.0248 21.8804 26.0947 19.3606 26.1006 19.147L26.1009 19.1346Z" fill="#333333"/>
</svg>
