<svg width="41" height="40" viewBox="0 0 41 40" fill="none" xmlns="http://www.w3.org/2000/svg">
<g clip-path="url(#clip0_1_2377)">
<path d="M20.5 0C9.45536 0 0.5 8.95536 0.5 20C0.5 31.0446 9.45536 40 20.5 40C31.5446 40 40.5 31.0446 40.5 20C40.5 8.95536 31.5446 0 20.5 0ZM29.8973 27.3393C29.3839 27.4018 27.8929 24.9866 27.8929 24.9866C27.8929 26.3839 27.1696 28.2098 25.6116 29.5313C26.3661 29.7634 28.0625 30.3884 27.6607 31.067C27.3348 31.6161 22.0536 31.4196 20.5268 31.2455C19 31.4152 13.7187 31.6161 13.3929 31.067C12.9866 30.3884 14.683 29.7634 15.4375 29.5313C13.875 28.2143 13.1563 26.3884 13.1563 24.9866C13.1563 24.9866 11.6652 27.4018 11.1518 27.3393C10.9107 27.308 10.5982 26.0179 11.5714 22.8884C12.0313 21.4152 12.5536 20.1875 13.3661 18.1652C13.2277 12.9464 15.3884 8.56696 20.5268 8.56696C25.6116 8.56696 27.817 12.8571 27.6875 18.1652C28.4955 20.183 29.0223 21.4152 29.4821 22.8884C30.4509 26.0179 30.1339 27.3125 29.8973 27.3393Z" fill="#1296DB"/>
</g>
<defs>
<clipPath id="clip0_1_2377">
<rect width="40" height="40" fill="white" transform="translate(0.5)"/>
</clipPath>
</defs>
</svg>
