<svg width="24" height="24" viewBox="0 0 24 24" fill="none" xmlns="http://www.w3.org/2000/svg">
<path d="M18.4983 21.7113H5.50176C5.05086 21.7134 4.61652 21.5416 4.2891 21.2315C4.12509 21.0786 3.99425 20.8936 3.90471 20.6879C3.81516 20.4823 3.76882 20.2605 3.76855 20.0362V11.7583C3.76985 11.3499 3.92307 10.9566 4.1984 10.6549L4.20051 10.6526C4.36601 10.4727 4.56709 10.3293 4.79097 10.2313C5.01485 10.1333 5.25666 10.0829 5.50105 10.0833H18.4983C18.7433 10.0826 18.9856 10.1332 19.2099 10.2317C19.4341 10.3302 19.6353 10.4745 19.8005 10.6554C20.076 10.9568 20.2293 11.35 20.2308 11.7583V20.036C20.2307 20.2546 20.1867 20.471 20.1015 20.6723C20.0162 20.8736 19.8914 21.0557 19.7344 21.2079C19.7267 21.2163 19.7185 21.2243 19.711 21.2313C19.3836 21.5414 18.9492 21.7133 18.4983 21.7113ZM5.11574 11.4858C5.04663 11.5598 5.0076 11.657 5.00629 11.7583V20.036C5.00746 20.0922 5.02003 20.1476 5.04323 20.1988C5.06644 20.25 5.0998 20.296 5.14129 20.3339C5.23891 20.4253 5.368 20.4757 5.50176 20.4745H18.4983C18.6257 20.4757 18.7491 20.4303 18.8452 20.3468L18.8588 20.3334C18.9002 20.2956 18.9335 20.2498 18.9567 20.1988C18.9799 20.1477 18.9925 20.0925 18.9938 20.0365V11.7583C18.9922 11.6568 18.9528 11.5596 18.8834 11.4855C18.8342 11.4327 18.7746 11.3908 18.7083 11.3623C18.642 11.3339 18.5705 11.3196 18.4983 11.3203H5.50176C5.42948 11.3197 5.35787 11.3342 5.29144 11.3626C5.22501 11.3911 5.16519 11.433 5.11574 11.4858Z" fill="#333333"/>
<path d="M16.5776 11.3203C16.4136 11.3203 16.2563 11.2552 16.1403 11.1392C16.0243 11.0232 15.9591 10.8659 15.9591 10.7018V7.48502C15.9554 6.43616 15.5371 5.4313 14.7954 4.68964C14.0538 3.94797 13.0489 3.52967 12 3.52596C9.81708 3.52596 8.04098 5.30206 8.04098 7.48502V10.7018C8.03783 10.8638 7.97127 11.0181 7.85559 11.1315C7.73992 11.245 7.58437 11.3085 7.42235 11.3085C7.26033 11.3085 7.10478 11.245 6.9891 11.1315C6.87343 11.0181 6.80687 10.8638 6.80372 10.7018V7.48502C6.80272 6.80273 6.93709 6.12701 7.19903 5.49699C7.46098 4.86698 7.84529 4.29518 8.32973 3.81471C9.31411 2.83034 10.6172 2.2887 12 2.2887C13.3829 2.2887 14.6862 2.83081 15.6704 3.81471C16.6545 4.79862 17.1964 6.10245 17.1964 7.48502V10.7018C17.1964 10.7831 17.1804 10.8635 17.1493 10.9386C17.1182 11.0136 17.0726 11.0818 17.0151 11.1393C16.9577 11.1967 16.8895 11.2423 16.8144 11.2733C16.7393 11.3044 16.6589 11.3204 16.5776 11.3203Z" fill="#333333"/>
<path d="M10.5771 15.2175C10.5771 15.4044 10.614 15.5894 10.6855 15.762C10.757 15.9347 10.8618 16.0915 10.9939 16.2236C11.126 16.3558 11.2829 16.4606 11.4555 16.5321C11.6282 16.6036 11.8132 16.6404 12 16.6404C12.1869 16.6404 12.3719 16.6036 12.5446 16.5321C12.7172 16.4606 12.874 16.3558 13.0062 16.2236C13.1383 16.0915 13.2431 15.9347 13.3146 15.762C13.3861 15.5894 13.4229 15.4044 13.4229 15.2175C13.4229 15.0307 13.3861 14.8456 13.3146 14.673C13.2431 14.5004 13.1383 14.3435 13.0062 14.2114C12.874 14.0792 12.7172 13.9744 12.5446 13.9029C12.3719 13.8314 12.1869 13.7946 12 13.7946C11.8132 13.7946 11.6282 13.8314 11.4555 13.9029C11.2829 13.9744 11.126 14.0792 10.9939 14.2114C10.8618 14.3435 10.757 14.5004 10.6855 14.673C10.614 14.8456 10.5771 15.0307 10.5771 15.2175Z" fill="#333333"/>
<path d="M12.0001 18.1249C11.9189 18.1249 11.8384 18.109 11.7634 18.0779C11.6883 18.0468 11.6201 18.0013 11.5627 17.9438C11.5052 17.8864 11.4597 17.8182 11.4286 17.7431C11.3975 17.6681 11.3816 17.5876 11.3816 17.5064V15.2798C11.3816 15.1158 11.4468 14.9585 11.5628 14.8425C11.6787 14.7265 11.8361 14.6613 12.0001 14.6613C12.1641 14.6613 12.3215 14.7265 12.4375 14.8425C12.5535 14.9585 12.6186 15.1158 12.6186 15.2798V17.5064C12.6187 17.5876 12.6027 17.6681 12.5716 17.7431C12.5405 17.8182 12.495 17.8864 12.4375 17.9438C12.3801 18.0013 12.3119 18.0468 12.2368 18.0779C12.1618 18.109 12.0813 18.1249 12.0001 18.1249Z" fill="#333333"/>
</svg>
