<svg width="24" height="24" viewBox="0 0 24 24" fill="none" xmlns="http://www.w3.org/2000/svg">
<path d="M12.5109 12.7265C11.1913 12.7265 9.86946 12.5625 8.5804 12.2367C7.52337 11.9695 6.48274 11.5969 5.49134 11.1258C3.79446 10.3195 2.82415 9.50857 2.78431 9.47342C2.53587 9.26482 2.5054 8.89451 2.71399 8.64842C2.92259 8.39998 3.2929 8.36951 3.53899 8.5781C3.56478 8.5992 4.47415 9.3492 6.0304 10.0851C7.45774 10.7578 9.73118 11.5547 12.5132 11.5547H12.607C17.9906 11.5195 20.5991 8.56638 20.6249 8.53592C20.8359 8.28982 21.2062 8.26404 21.4523 8.47498C21.6984 8.68592 21.7241 9.05623 21.5132 9.30232C21.4827 9.33748 20.7445 10.1836 19.2726 11.025C18.4195 11.5125 17.4866 11.9039 16.5023 12.1851C15.2788 12.5367 13.9687 12.7172 12.614 12.7265H12.5109Z" fill="#333333"/>
<path d="M5.8993 14.5008C5.79852 14.5008 5.69539 14.475 5.60164 14.4188C5.32274 14.2547 5.23133 13.8938 5.39539 13.6149L6.82742 11.1984C6.99149 10.9195 7.35243 10.8281 7.63133 10.9922C7.91024 11.1563 8.00164 11.5172 7.83758 11.7961L6.40555 14.2125C6.29539 14.3977 6.10086 14.5008 5.8993 14.5008ZM9.65399 16.3078C9.62118 16.3078 9.59071 16.3055 9.55789 16.3008C9.23914 16.2469 9.02352 15.9445 9.07742 15.6258L9.65633 12.1336C9.71024 11.8149 10.0126 11.5992 10.3313 11.6531C10.6501 11.707 10.8657 12.0094 10.8118 12.3281L10.2306 15.818C10.1837 16.1039 9.93524 16.3078 9.65399 16.3078ZM18.3938 14.5008C18.1946 14.5008 17.9977 14.3977 17.8899 14.2125L16.4579 11.7961C16.2938 11.5172 16.3852 11.1586 16.6641 10.9922C16.9431 10.8281 17.3016 10.9195 17.468 11.1984L18.9001 13.6149C19.0641 13.8938 18.9727 14.2524 18.6938 14.4188C18.5977 14.4727 18.4946 14.5008 18.3938 14.5008ZM14.8032 16.3078C14.522 16.3078 14.2735 16.1039 14.2266 15.818L13.6454 12.3281C13.5915 12.0094 13.8071 11.707 14.1259 11.6531C14.4446 11.5992 14.747 11.8149 14.8009 12.1336L15.3821 15.6234C15.436 15.9422 15.2204 16.2445 14.9016 16.2984C14.8665 16.3055 14.836 16.3078 14.8032 16.3078Z" fill="#333333"/>
</svg>
