<svg width="24" height="24" viewBox="0 0 24 24" fill="none" xmlns="http://www.w3.org/2000/svg">
<path d="M12.0937 16.0945C9.8624 16.0945 8.04834 14.2805 8.04834 12.0492C8.04834 9.81797 9.8624 8.00391 12.0937 8.00391C14.3249 8.00391 16.139 9.81797 16.139 12.0492C16.139 14.2805 14.3249 16.0945 12.0937 16.0945ZM12.0937 9.17344C10.5093 9.17344 9.22021 10.4625 9.22021 12.0469C9.22021 13.6313 10.5093 14.9203 12.0937 14.9203C13.678 14.9203 14.9671 13.6313 14.9671 12.0469C14.9671 10.4625 13.678 9.17344 12.0937 9.17344Z" fill="#333333"/>
<path d="M2.4375 12.0351C2.4375 12.0351 3.52266 8.99763 6.40781 7.19997C6.40781 7.19997 8.83828 5.47731 12.2062 5.50309C15.5742 5.52888 17.8523 7.24919 17.8523 7.24919C17.8523 7.24919 20.7094 9.09606 21.75 12.0351C20.3344 12.0867 20.3227 12.0351 20.3227 12.0351C20.3227 12.0351 19.268 9.48981 16.3078 7.85856C13.725 6.69372 12.4852 6.85309 12.0938 6.82497C11.55 6.85544 10.0875 6.80622 8.15391 7.71559C7.33594 8.107 5.96484 9.11247 5.39531 9.757C4.89609 10.3218 3.86484 12.0328 3.86484 12.0328H2.4375V12.0351Z" fill="#333333"/>
<path d="M2.4375 11.993C2.4375 11.993 3.52266 15.0305 6.40781 16.8282C6.40781 16.8282 8.83828 18.5508 12.2062 18.525C15.5742 18.4993 17.8523 16.7789 17.8523 16.7789C17.8523 16.7789 20.7094 14.9321 21.75 11.993C20.3344 11.9414 20.3227 11.993 20.3227 11.993C20.3227 11.993 19.268 14.5383 16.3078 16.1696C13.725 17.3321 12.4875 17.1727 12.0938 17.2032C11.55 17.1727 10.0875 17.2219 8.15391 16.3125C7.33594 15.9211 5.96484 14.9157 5.39531 14.2711C4.89609 13.7063 3.86484 11.9954 3.86484 11.9954H2.4375V11.993Z" fill="#333333"/>
</svg>
