<svg width="24" height="24" viewBox="0 0 24 24" fill="none" xmlns="http://www.w3.org/2000/svg">
<path d="M15.1757 1.42163H8.7929C6.69285 1.42163 4.98438 3.13011 4.98438 5.23015V18.6811C4.98438 20.7811 6.69285 22.4896 8.7929 22.4896H15.1757C17.2757 22.4896 18.9842 20.7811 18.9842 18.6811V5.23015C18.9842 3.13011 17.2757 1.42163 15.1757 1.42163ZM17.7147 18.6811C17.7147 20.0811 16.5757 21.2201 15.1757 21.2201H8.7929C7.39291 21.2201 6.25389 20.0811 6.25389 18.6811V5.23015C6.25389 3.83016 7.39291 2.69112 8.7929 2.69112H10.1093C10.1129 3.03863 10.3951 3.31948 10.7434 3.31948H13.2251C13.5735 3.31948 13.8557 3.03863 13.8592 2.69112H15.1757C16.5756 2.69112 17.7147 3.83014 17.7147 5.23015V18.6811H17.7147Z" fill="#333333"/>
<path d="M13.2253 19.2025H10.7436C10.3931 19.2025 10.1089 19.4867 10.1089 19.8372C10.1089 20.1878 10.3931 20.472 10.7436 20.472H13.2253C13.5759 20.472 13.8601 20.1878 13.8601 19.8372C13.8601 19.4867 13.5759 19.2025 13.2253 19.2025Z" fill="#333333"/>
</svg>
